<svg width="19" height="18" viewBox="0 0 19 18" fill="none"
    xmlns="http://www.w3.org/2000/svg">
    <path d="M13.255 11.2549H12.465L12.185 10.9849C13.165 9.84488 13.755 8.36488 13.755 6.75488C13.755 3.16488 10.845 0.254883 7.255 0.254883C3.665 0.254883 0.755005 3.16488 0.755005 6.75488C0.755005 10.3449 3.665 13.2549 7.255 13.2549C8.865 13.2549 10.345 12.6649 11.485 11.6849L11.755 11.9649V12.7549L16.755 17.7449L18.245 16.2549L13.255 11.2549ZM7.255 11.2549C4.76501 11.2549 2.755 9.24488 2.755 6.75488C2.755 4.26488 4.76501 2.25488 7.255 2.25488C9.745 2.25488 11.755 4.26488 11.755 6.75488C11.755 9.24488 9.745 11.2549 7.255 11.2549Z" fill="white" fill-opacity="0.90"/>
</svg>
